<?xml version="1.0" standalone="no"?>
 <!DOCTYPE svg PUBLIC "-//W3C//DTD SVG 1.1//EN" 
 "http://www.w3.org/Graphics/SVG/1.1/DTD/svg11.dtd"> 
<svg
  xmlns:svg="http://www.w3.org/2000/svg"
  xmlns="http://www.w3.org/2000/svg"
  xmlns:xlink="http://www.w3.org/1999/xlink"
  version="1.1"
  width="297.0022mm" height="210.0072mm" viewBox="0.0000 0.0000 297.0022 210.0072">
<title>SVG Image created as RPI_Music-B_Silkscreen.svg date 2023/11/10 10:57:07 </title>
  <desc>Image generated by PCBNEW </desc>
<g style="fill:#000000; fill-opacity:1.0000;stroke:#000000; stroke-opacity:1.0000;
stroke-linecap:round; stroke-linejoin:round;"
 transform="translate(0 0) scale(1 1)">
</g>
<g style="fill:#000000; fill-opacity:0.0; 
stroke:#000000; stroke-width:0.0000; stroke-opacity:1; 
stroke-linecap:round; stroke-linejoin:round;">
</g>
<g style="fill:#000000; fill-opacity:0.0; 
stroke:#000000; stroke-width:0.1500; stroke-opacity:1; 
stroke-linecap:round; stroke-linejoin:round;">
<text x="53.1920" y="99.3863"
transform="scale(-1 1) translate(-106.384000 0)"
textLength="3.2976" font-size="1.3333" lengthAdjust="spacingAndGlyphs"
text-anchor="middle" opacity="0">SW1</text>
<g class="stroked-text"><desc>SW1</desc>
<path d="M54.5253 99.2935
L54.3825 99.3411
" />
<path d="M54.3825 99.3411
L54.1444 99.3411
" />
<path d="M54.1444 99.3411
L54.0491 99.2935
" />
<path d="M54.0491 99.2935
L54.0015 99.2459
" />
<path d="M54.0015 99.2459
L53.9539 99.1506
" />
<path d="M53.9539 99.1506
L53.9539 99.0554
" />
<path d="M53.9539 99.0554
L54.0015 98.9602
" />
<path d="M54.0015 98.9602
L54.0491 98.9125
" />
<path d="M54.0491 98.9125
L54.1444 98.8649
" />
<path d="M54.1444 98.8649
L54.3349 98.8173
" />
<path d="M54.3349 98.8173
L54.4301 98.7697
" />
<path d="M54.4301 98.7697
L54.4777 98.7221
" />
<path d="M54.4777 98.7221
L54.5253 98.6268
" />
<path d="M54.5253 98.6268
L54.5253 98.5316
" />
<path d="M54.5253 98.5316
L54.4777 98.4364
" />
<path d="M54.4777 98.4364
L54.4301 98.3887
" />
<path d="M54.4301 98.3887
L54.3349 98.3411
" />
<path d="M54.3349 98.3411
L54.0968 98.3411
" />
<path d="M54.0968 98.3411
L53.9539 98.3887
" />
<path d="M53.6206 98.3411
L53.3825 99.3411
" />
<path d="M53.3825 99.3411
L53.1920 98.6268
" />
<path d="M53.1920 98.6268
L53.0015 99.3411
" />
<path d="M53.0015 99.3411
L52.7634 98.3411
" />
<path d="M51.8587 99.3411
L52.4301 99.3411
" />
<path d="M52.1444 99.3411
L52.1444 98.3411
" />
<path d="M52.1444 98.3411
L52.2396 98.4840
" />
<path d="M52.2396 98.4840
L52.3349 98.5792
" />
<path d="M52.3349 98.5792
L52.4301 98.6268
" />
</g><g transform="rotate(-90.000000 100.2760 47.7000)">
<text x="100.2760" y="48.2000"
transform="scale(-1 1) translate(-200.552000 0)"
textLength="3.0595" font-size="1.3333" lengthAdjust="spacingAndGlyphs"
text-anchor="middle" opacity="0">RV3</text>
</g>
<g class="stroked-text"><desc>RV3</desc>
<path d="M100.7308 47.1048
L100.2546 46.7714
" />
<path d="M100.7308 46.5333
L99.7308 46.5333
" />
<path d="M99.7308 46.5333
L99.7308 46.9143
" />
<path d="M99.7308 46.9143
L99.7784 47.0095
" />
<path d="M99.7784 47.0095
L99.8261 47.0571
" />
<path d="M99.8261 47.0571
L99.9213 47.1048
" />
<path d="M99.9213 47.1048
L100.0642 47.1048
" />
<path d="M100.0642 47.1048
L100.1594 47.0571
" />
<path d="M100.1594 47.0571
L100.2070 47.0095
" />
<path d="M100.2070 47.0095
L100.2546 46.9143
" />
<path d="M100.2546 46.9143
L100.2546 46.5333
" />
<path d="M99.7308 47.3905
L100.7308 47.7238
" />
<path d="M100.7308 47.7238
L99.7308 48.0571
" />
<path d="M99.7308 48.2952
L99.7308 48.9143
" />
<path d="M99.7308 48.9143
L100.1118 48.5810
" />
<path d="M100.1118 48.5810
L100.1118 48.7238
" />
<path d="M100.1118 48.7238
L100.1594 48.8190
" />
<path d="M100.1594 48.8190
L100.2070 48.8667
" />
<path d="M100.2070 48.8667
L100.3022 48.9143
" />
<path d="M100.3022 48.9143
L100.5403 48.9143
" />
<path d="M100.5403 48.9143
L100.6356 48.8667
" />
<path d="M100.6356 48.8667
L100.6832 48.8190
" />
<path d="M100.6832 48.8190
L100.7308 48.7238
" />
<path d="M100.7308 48.7238
L100.7308 48.4381
" />
<path d="M100.7308 48.4381
L100.6832 48.3429
" />
<path d="M100.6832 48.3429
L100.6356 48.2952
" />
</g><text x="134.2170" y="99.3863"
transform="scale(-1 1) translate(-268.434000 0)"
textLength="3.2976" font-size="1.3333" lengthAdjust="spacingAndGlyphs"
text-anchor="middle" opacity="0">SW4</text>
<g class="stroked-text"><desc>SW4</desc>
<path d="M135.5503 99.2935
L135.4075 99.3411
" />
<path d="M135.4075 99.3411
L135.1694 99.3411
" />
<path d="M135.1694 99.3411
L135.0741 99.2935
" />
<path d="M135.0741 99.2935
L135.0265 99.2459
" />
<path d="M135.0265 99.2459
L134.9789 99.1506
" />
<path d="M134.9789 99.1506
L134.9789 99.0554
" />
<path d="M134.9789 99.0554
L135.0265 98.9602
" />
<path d="M135.0265 98.9602
L135.0741 98.9125
" />
<path d="M135.0741 98.9125
L135.1694 98.8649
" />
<path d="M135.1694 98.8649
L135.3599 98.8173
" />
<path d="M135.3599 98.8173
L135.4551 98.7697
" />
<path d="M135.4551 98.7697
L135.5027 98.7221
" />
<path d="M135.5027 98.7221
L135.5503 98.6268
" />
<path d="M135.5503 98.6268
L135.5503 98.5316
" />
<path d="M135.5503 98.5316
L135.5027 98.4364
" />
<path d="M135.5027 98.4364
L135.4551 98.3887
" />
<path d="M135.4551 98.3887
L135.3599 98.3411
" />
<path d="M135.3599 98.3411
L135.1218 98.3411
" />
<path d="M135.1218 98.3411
L134.9789 98.3887
" />
<path d="M134.6456 98.3411
L134.4075 99.3411
" />
<path d="M134.4075 99.3411
L134.2170 98.6268
" />
<path d="M134.2170 98.6268
L134.0265 99.3411
" />
<path d="M134.0265 99.3411
L133.7884 98.3411
" />
<path d="M132.9789 98.6745
L132.9789 99.3411
" />
<path d="M133.2170 98.2935
L133.4551 99.0078
" />
<path d="M133.4551 99.0078
L132.8360 99.0078
" />
</g><text x="107.2410" y="99.3863"
transform="scale(-1 1) translate(-214.482000 0)"
textLength="3.2976" font-size="1.3333" lengthAdjust="spacingAndGlyphs"
text-anchor="middle" opacity="0">SW3</text>
<g class="stroked-text"><desc>SW3</desc>
<path d="M108.5743 99.2935
L108.4315 99.3411
" />
<path d="M108.4315 99.3411
L108.1934 99.3411
" />
<path d="M108.1934 99.3411
L108.0981 99.2935
" />
<path d="M108.0981 99.2935
L108.0505 99.2459
" />
<path d="M108.0505 99.2459
L108.0029 99.1506
" />
<path d="M108.0029 99.1506
L108.0029 99.0554
" />
<path d="M108.0029 99.0554
L108.0505 98.9602
" />
<path d="M108.0505 98.9602
L108.0981 98.9125
" />
<path d="M108.0981 98.9125
L108.1934 98.8649
" />
<path d="M108.1934 98.8649
L108.3839 98.8173
" />
<path d="M108.3839 98.8173
L108.4791 98.7697
" />
<path d="M108.4791 98.7697
L108.5267 98.7221
" />
<path d="M108.5267 98.7221
L108.5743 98.6268
" />
<path d="M108.5743 98.6268
L108.5743 98.5316
" />
<path d="M108.5743 98.5316
L108.5267 98.4364
" />
<path d="M108.5267 98.4364
L108.4791 98.3887
" />
<path d="M108.4791 98.3887
L108.3839 98.3411
" />
<path d="M108.3839 98.3411
L108.1458 98.3411
" />
<path d="M108.1458 98.3411
L108.0029 98.3887
" />
<path d="M107.6696 98.3411
L107.4315 99.3411
" />
<path d="M107.4315 99.3411
L107.2410 98.6268
" />
<path d="M107.2410 98.6268
L107.0505 99.3411
" />
<path d="M107.0505 99.3411
L106.8124 98.3411
" />
<path d="M106.5267 98.3411
L105.9077 98.3411
" />
<path d="M105.9077 98.3411
L106.2410 98.7221
" />
<path d="M106.2410 98.7221
L106.0981 98.7221
" />
<path d="M106.0981 98.7221
L106.0029 98.7697
" />
<path d="M106.0029 98.7697
L105.9553 98.8173
" />
<path d="M105.9553 98.8173
L105.9077 98.9125
" />
<path d="M105.9077 98.9125
L105.9077 99.1506
" />
<path d="M105.9077 99.1506
L105.9553 99.2459
" />
<path d="M105.9553 99.2459
L106.0029 99.2935
" />
<path d="M106.0029 99.2935
L106.0981 99.3411
" />
<path d="M106.0981 99.3411
L106.3839 99.3411
" />
<path d="M106.3839 99.3411
L106.4791 99.2935
" />
<path d="M106.4791 99.2935
L106.5267 99.2459
" />
</g><g transform="rotate(-90.000000 127.2520 74.2500)">
<text x="127.2520" y="74.7500"
transform="scale(-1 1) translate(-254.504000 0)"
textLength="3.0595" font-size="1.3333" lengthAdjust="spacingAndGlyphs"
text-anchor="middle" opacity="0">RV2</text>
</g>
<g class="stroked-text"><desc>RV2</desc>
<path d="M127.7068 73.6548
L127.2306 73.3214
" />
<path d="M127.7068 73.0833
L126.7068 73.0833
" />
<path d="M126.7068 73.0833
L126.7068 73.4643
" />
<path d="M126.7068 73.4643
L126.7544 73.5595
" />
<path d="M126.7544 73.5595
L126.8021 73.6071
" />
<path d="M126.8021 73.6071
L126.8973 73.6548
" />
<path d="M126.8973 73.6548
L127.0402 73.6548
" />
<path d="M127.0402 73.6548
L127.1354 73.6071
" />
<path d="M127.1354 73.6071
L127.1830 73.5595
" />
<path d="M127.1830 73.5595
L127.2306 73.4643
" />
<path d="M127.2306 73.4643
L127.2306 73.0833
" />
<path d="M126.7068 73.9405
L127.7068 74.2738
" />
<path d="M127.7068 74.2738
L126.7068 74.6071
" />
<path d="M126.8021 74.8929
L126.7544 74.9405
" />
<path d="M126.7544 74.9405
L126.7068 75.0357
" />
<path d="M126.7068 75.0357
L126.7068 75.2738
" />
<path d="M126.7068 75.2738
L126.7544 75.3690
" />
<path d="M126.7544 75.3690
L126.8021 75.4167
" />
<path d="M126.8021 75.4167
L126.8973 75.4643
" />
<path d="M126.8973 75.4643
L126.9925 75.4643
" />
<path d="M126.9925 75.4643
L127.1354 75.4167
" />
<path d="M127.1354 75.4167
L127.7068 74.8452
" />
<path d="M127.7068 74.8452
L127.7068 75.4643
" />
</g><g transform="rotate(-90.000000 73.4040 47.7000)">
<text x="73.4040" y="48.2000"
transform="scale(-1 1) translate(-146.808000 0)"
textLength="3.0595" font-size="1.3333" lengthAdjust="spacingAndGlyphs"
text-anchor="middle" opacity="0">RV5</text>
</g>
<g class="stroked-text"><desc>RV5</desc>
<path d="M73.8588 47.1048
L73.3826 46.7714
" />
<path d="M73.8588 46.5333
L72.8588 46.5333
" />
<path d="M72.8588 46.5333
L72.8588 46.9143
" />
<path d="M72.8588 46.9143
L72.9064 47.0095
" />
<path d="M72.9064 47.0095
L72.9541 47.0571
" />
<path d="M72.9541 47.0571
L73.0493 47.1048
" />
<path d="M73.0493 47.1048
L73.1922 47.1048
" />
<path d="M73.1922 47.1048
L73.2874 47.0571
" />
<path d="M73.2874 47.0571
L73.3350 47.0095
" />
<path d="M73.3350 47.0095
L73.3826 46.9143
" />
<path d="M73.3826 46.9143
L73.3826 46.5333
" />
<path d="M72.8588 47.3905
L73.8588 47.7238
" />
<path d="M73.8588 47.7238
L72.8588 48.0571
" />
<path d="M72.8588 48.8667
L72.8588 48.3905
" />
<path d="M72.8588 48.3905
L73.3350 48.3429
" />
<path d="M73.3350 48.3429
L73.2874 48.3905
" />
<path d="M73.2874 48.3905
L73.2398 48.4857
" />
<path d="M73.2398 48.4857
L73.2398 48.7238
" />
<path d="M73.2398 48.7238
L73.2874 48.8190
" />
<path d="M73.2874 48.8190
L73.3350 48.8667
" />
<path d="M73.3350 48.8667
L73.4302 48.9143
" />
<path d="M73.4302 48.9143
L73.6683 48.9143
" />
<path d="M73.6683 48.9143
L73.7636 48.8667
" />
<path d="M73.7636 48.8667
L73.8112 48.8190
" />
<path d="M73.8112 48.8190
L73.8588 48.7238
" />
<path d="M73.8588 48.7238
L73.8588 48.4857
" />
<path d="M73.8588 48.4857
L73.8112 48.3905
" />
<path d="M73.8112 48.3905
L73.7636 48.3429
" />
</g><g transform="rotate(-90.000000 100.2760 74.2500)">
<text x="100.2760" y="74.7500"
transform="scale(-1 1) translate(-200.552000 0)"
textLength="3.0595" font-size="1.3333" lengthAdjust="spacingAndGlyphs"
text-anchor="middle" opacity="0">RV4</text>
</g>
<g class="stroked-text"><desc>RV4</desc>
<path d="M100.7308 73.6548
L100.2546 73.3214
" />
<path d="M100.7308 73.0833
L99.7308 73.0833
" />
<path d="M99.7308 73.0833
L99.7308 73.4643
" />
<path d="M99.7308 73.4643
L99.7784 73.5595
" />
<path d="M99.7784 73.5595
L99.8261 73.6071
" />
<path d="M99.8261 73.6071
L99.9213 73.6548
" />
<path d="M99.9213 73.6548
L100.0642 73.6548
" />
<path d="M100.0642 73.6548
L100.1594 73.6071
" />
<path d="M100.1594 73.6071
L100.2070 73.5595
" />
<path d="M100.2070 73.5595
L100.2546 73.4643
" />
<path d="M100.2546 73.4643
L100.2546 73.0833
" />
<path d="M99.7308 73.9405
L100.7308 74.2738
" />
<path d="M100.7308 74.2738
L99.7308 74.6071
" />
<path d="M100.0642 75.3690
L100.7308 75.3690
" />
<path d="M99.6832 75.1310
L100.3975 74.8929
" />
<path d="M100.3975 74.8929
L100.3975 75.5119
" />
</g><g transform="rotate(-90.000000 73.4040 74.2500)">
<text x="73.4040" y="74.7500"
transform="scale(-1 1) translate(-146.808000 0)"
textLength="3.0595" font-size="1.3333" lengthAdjust="spacingAndGlyphs"
text-anchor="middle" opacity="0">RV6</text>
</g>
<g class="stroked-text"><desc>RV6</desc>
<path d="M73.8588 73.6548
L73.3826 73.3214
" />
<path d="M73.8588 73.0833
L72.8588 73.0833
" />
<path d="M72.8588 73.0833
L72.8588 73.4643
" />
<path d="M72.8588 73.4643
L72.9064 73.5595
" />
<path d="M72.9064 73.5595
L72.9541 73.6071
" />
<path d="M72.9541 73.6071
L73.0493 73.6548
" />
<path d="M73.0493 73.6548
L73.1922 73.6548
" />
<path d="M73.1922 73.6548
L73.2874 73.6071
" />
<path d="M73.2874 73.6071
L73.3350 73.5595
" />
<path d="M73.3350 73.5595
L73.3826 73.4643
" />
<path d="M73.3826 73.4643
L73.3826 73.0833
" />
<path d="M72.8588 73.9405
L73.8588 74.2738
" />
<path d="M73.8588 74.2738
L72.8588 74.6071
" />
<path d="M72.8588 75.3690
L72.8588 75.1786
" />
<path d="M72.8588 75.1786
L72.9064 75.0833
" />
<path d="M72.9064 75.0833
L72.9541 75.0357
" />
<path d="M72.9541 75.0357
L73.0969 74.9405
" />
<path d="M73.0969 74.9405
L73.2874 74.8929
" />
<path d="M73.2874 74.8929
L73.6683 74.8929
" />
<path d="M73.6683 74.8929
L73.7636 74.9405
" />
<path d="M73.7636 74.9405
L73.8112 74.9881
" />
<path d="M73.8112 74.9881
L73.8588 75.0833
" />
<path d="M73.8588 75.0833
L73.8588 75.2738
" />
<path d="M73.8588 75.2738
L73.8112 75.3690
" />
<path d="M73.8112 75.3690
L73.7636 75.4167
" />
<path d="M73.7636 75.4167
L73.6683 75.4643
" />
<path d="M73.6683 75.4643
L73.4302 75.4643
" />
<path d="M73.4302 75.4643
L73.3350 75.4167
" />
<path d="M73.3350 75.4167
L73.2874 75.3690
" />
<path d="M73.2874 75.3690
L73.2398 75.2738
" />
<path d="M73.2398 75.2738
L73.2398 75.0833
" />
<path d="M73.2398 75.0833
L73.2874 74.9881
" />
<path d="M73.2874 74.9881
L73.3350 74.9405
" />
<path d="M73.3350 74.9405
L73.4302 74.8929
" />
</g><g transform="rotate(-90.000000 127.2520 47.7000)">
<text x="127.2520" y="48.2000"
transform="scale(-1 1) translate(-254.504000 0)"
textLength="3.0595" font-size="1.3333" lengthAdjust="spacingAndGlyphs"
text-anchor="middle" opacity="0">RV1</text>
</g>
<g class="stroked-text"><desc>RV1</desc>
<path d="M127.7068 47.1048
L127.2306 46.7714
" />
<path d="M127.7068 46.5333
L126.7068 46.5333
" />
<path d="M126.7068 46.5333
L126.7068 46.9143
" />
<path d="M126.7068 46.9143
L126.7544 47.0095
" />
<path d="M126.7544 47.0095
L126.8021 47.0571
" />
<path d="M126.8021 47.0571
L126.8973 47.1048
" />
<path d="M126.8973 47.1048
L127.0402 47.1048
" />
<path d="M127.0402 47.1048
L127.1354 47.0571
" />
<path d="M127.1354 47.0571
L127.1830 47.0095
" />
<path d="M127.1830 47.0095
L127.2306 46.9143
" />
<path d="M127.2306 46.9143
L127.2306 46.5333
" />
<path d="M126.7068 47.3905
L127.7068 47.7238
" />
<path d="M127.7068 47.7238
L126.7068 48.0571
" />
<path d="M127.7068 48.9143
L127.7068 48.3429
" />
<path d="M127.7068 48.6286
L126.7068 48.6286
" />
<path d="M126.7068 48.6286
L126.8497 48.5333
" />
<path d="M126.8497 48.5333
L126.9449 48.4381
" />
<path d="M126.9449 48.4381
L126.9925 48.3429
" />
</g><g transform="rotate(-90.000000 46.2270 47.7000)">
<text x="46.2270" y="48.2000"
transform="scale(-1 1) translate(-92.454000 0)"
textLength="3.0595" font-size="1.3333" lengthAdjust="spacingAndGlyphs"
text-anchor="middle" opacity="0">RV7</text>
</g>
<g class="stroked-text"><desc>RV7</desc>
<path d="M46.6818 47.1048
L46.2056 46.7714
" />
<path d="M46.6818 46.5333
L45.6818 46.5333
" />
<path d="M45.6818 46.5333
L45.6818 46.9143
" />
<path d="M45.6818 46.9143
L45.7294 47.0095
" />
<path d="M45.7294 47.0095
L45.7771 47.0571
" />
<path d="M45.7771 47.0571
L45.8723 47.1048
" />
<path d="M45.8723 47.1048
L46.0152 47.1048
" />
<path d="M46.0152 47.1048
L46.1104 47.0571
" />
<path d="M46.1104 47.0571
L46.1580 47.0095
" />
<path d="M46.1580 47.0095
L46.2056 46.9143
" />
<path d="M46.2056 46.9143
L46.2056 46.5333
" />
<path d="M45.6818 47.3905
L46.6818 47.7238
" />
<path d="M46.6818 47.7238
L45.6818 48.0571
" />
<path d="M45.6818 48.2952
L45.6818 48.9619
" />
<path d="M45.6818 48.9619
L46.6818 48.5333
" />
</g><text x="80.3690" y="99.3863"
transform="scale(-1 1) translate(-160.738000 0)"
textLength="3.2976" font-size="1.3333" lengthAdjust="spacingAndGlyphs"
text-anchor="middle" opacity="0">SW2</text>
<g class="stroked-text"><desc>SW2</desc>
<path d="M81.7023 99.2935
L81.5595 99.3411
" />
<path d="M81.5595 99.3411
L81.3214 99.3411
" />
<path d="M81.3214 99.3411
L81.2261 99.2935
" />
<path d="M81.2261 99.2935
L81.1785 99.2459
" />
<path d="M81.1785 99.2459
L81.1309 99.1506
" />
<path d="M81.1309 99.1506
L81.1309 99.0554
" />
<path d="M81.1309 99.0554
L81.1785 98.9602
" />
<path d="M81.1785 98.9602
L81.2261 98.9125
" />
<path d="M81.2261 98.9125
L81.3214 98.8649
" />
<path d="M81.3214 98.8649
L81.5119 98.8173
" />
<path d="M81.5119 98.8173
L81.6071 98.7697
" />
<path d="M81.6071 98.7697
L81.6547 98.7221
" />
<path d="M81.6547 98.7221
L81.7023 98.6268
" />
<path d="M81.7023 98.6268
L81.7023 98.5316
" />
<path d="M81.7023 98.5316
L81.6547 98.4364
" />
<path d="M81.6547 98.4364
L81.6071 98.3887
" />
<path d="M81.6071 98.3887
L81.5119 98.3411
" />
<path d="M81.5119 98.3411
L81.2738 98.3411
" />
<path d="M81.2738 98.3411
L81.1309 98.3887
" />
<path d="M80.7976 98.3411
L80.5595 99.3411
" />
<path d="M80.5595 99.3411
L80.3690 98.6268
" />
<path d="M80.3690 98.6268
L80.1785 99.3411
" />
<path d="M80.1785 99.3411
L79.9404 98.3411
" />
<path d="M79.6071 98.4364
L79.5595 98.3887
" />
<path d="M79.5595 98.3887
L79.4642 98.3411
" />
<path d="M79.4642 98.3411
L79.2261 98.3411
" />
<path d="M79.2261 98.3411
L79.1309 98.3887
" />
<path d="M79.1309 98.3887
L79.0833 98.4364
" />
<path d="M79.0833 98.4364
L79.0357 98.5316
" />
<path d="M79.0357 98.5316
L79.0357 98.6268
" />
<path d="M79.0357 98.6268
L79.0833 98.7697
" />
<path d="M79.0833 98.7697
L79.6547 99.3411
" />
<path d="M79.6547 99.3411
L79.0357 99.3411
" />
</g><g transform="rotate(-90.000000 46.2270 74.2500)">
<text x="46.2270" y="74.7500"
transform="scale(-1 1) translate(-92.454000 0)"
textLength="3.0595" font-size="1.3333" lengthAdjust="spacingAndGlyphs"
text-anchor="middle" opacity="0">RV8</text>
</g>
<g class="stroked-text"><desc>RV8</desc>
<path d="M46.6818 73.6548
L46.2056 73.3214
" />
<path d="M46.6818 73.0833
L45.6818 73.0833
" />
<path d="M45.6818 73.0833
L45.6818 73.4643
" />
<path d="M45.6818 73.4643
L45.7294 73.5595
" />
<path d="M45.7294 73.5595
L45.7771 73.6071
" />
<path d="M45.7771 73.6071
L45.8723 73.6548
" />
<path d="M45.8723 73.6548
L46.0152 73.6548
" />
<path d="M46.0152 73.6548
L46.1104 73.6071
" />
<path d="M46.1104 73.6071
L46.1580 73.5595
" />
<path d="M46.1580 73.5595
L46.2056 73.4643
" />
<path d="M46.2056 73.4643
L46.2056 73.0833
" />
<path d="M45.6818 73.9405
L46.6818 74.2738
" />
<path d="M46.6818 74.2738
L45.6818 74.6071
" />
<path d="M46.1104 75.0833
L46.0628 74.9881
" />
<path d="M46.0628 74.9881
L46.0152 74.9405
" />
<path d="M46.0152 74.9405
L45.9199 74.8929
" />
<path d="M45.9199 74.8929
L45.8723 74.8929
" />
<path d="M45.8723 74.8929
L45.7771 74.9405
" />
<path d="M45.7771 74.9405
L45.7294 74.9881
" />
<path d="M45.7294 74.9881
L45.6818 75.0833
" />
<path d="M45.6818 75.0833
L45.6818 75.2738
" />
<path d="M45.6818 75.2738
L45.7294 75.3690
" />
<path d="M45.7294 75.3690
L45.7771 75.4167
" />
<path d="M45.7771 75.4167
L45.8723 75.4643
" />
<path d="M45.8723 75.4643
L45.9199 75.4643
" />
<path d="M45.9199 75.4643
L46.0152 75.4167
" />
<path d="M46.0152 75.4167
L46.0628 75.3690
" />
<path d="M46.0628 75.3690
L46.1104 75.2738
" />
<path d="M46.1104 75.2738
L46.1104 75.0833
" />
<path d="M46.1104 75.0833
L46.1580 74.9881
" />
<path d="M46.1580 74.9881
L46.2056 74.9405
" />
<path d="M46.2056 74.9405
L46.3009 74.8929
" />
<path d="M46.3009 74.8929
L46.4913 74.8929
" />
<path d="M46.4913 74.8929
L46.5866 74.9405
" />
<path d="M46.5866 74.9405
L46.6342 74.9881
" />
<path d="M46.6342 74.9881
L46.6818 75.0833
" />
<path d="M46.6818 75.0833
L46.6818 75.2738
" />
<path d="M46.6818 75.2738
L46.6342 75.3690
" />
<path d="M46.6342 75.3690
L46.5866 75.4167
" />
<path d="M46.5866 75.4167
L46.4913 75.4643
" />
<path d="M46.4913 75.4643
L46.3009 75.4643
" />
<path d="M46.3009 75.4643
L46.2056 75.4167
" />
<path d="M46.2056 75.4167
L46.1580 75.3690
" />
<path d="M46.1580 75.3690
L46.1104 75.2738
" />
</g></g>
<g style="fill:#000000; fill-opacity:0.0; 
stroke:#000000; stroke-width:0.1200; stroke-opacity:1; 
stroke-linecap:round; stroke-linejoin:round;">
<path d="M59.5420 108.2663
L59.5420 91.2663
" />
<path d="M59.5420 96.3463
L47.1920 96.3463
" />
<path d="M59.5420 91.2663
L47.1920 91.2663
" />
<path d="M57.8910 106.7603
L59.5420 108.2663
" />
<path d="M57.8910 106.7603
L57.8910 97.8703
" />
<path d="M57.8910 97.8703
L59.5420 96.3463
" />
<path d="M57.8910 97.8703
L48.7470 97.8703
" />
<path d="M48.7470 106.7603
L57.8910 106.7603
" />
<path d="M48.7470 97.8703
L48.7470 106.7603
" />
<path d="M48.7470 97.8703
L47.1920 96.3463
" />
<path d="M47.2230 108.1573
L48.7470 106.7603
" />
<path d="M47.1920 108.2663
L59.5420 108.2663
" />
<path d="M47.1920 91.2663
L47.1920 108.2663
" />
<circle cx="53.3670" cy="93.8063" r="1.5000" /> 
<path d="M112.2860 41.8700
L110.7960 41.8700
" />
<path d="M112.2860 41.8700
L112.2860 46.5900
" />
<path d="M109.0760 41.8700
L108.2460 41.8700
" />
<path d="M106.6260 41.8700
L106.0960 41.8700
" />
<path d="M103.7260 41.8700
L102.5460 41.8700
" />
<path d="M102.5360 41.8700
L102.5360 46.5900
" />
<path d="M112.2860 50.4000
L112.2860 53.4600
" />
<path d="M102.5460 50.4000
L102.5460 53.4600
" />
<path d="M112.2860 53.4600
L102.5460 53.4600
" />
<path d="M140.5670 108.2663
L140.5670 91.2663
" />
<path d="M140.5670 96.3463
L128.2170 96.3463
" />
<path d="M140.5670 91.2663
L128.2170 91.2663
" />
<path d="M138.9160 106.7603
L140.5670 108.2663
" />
<path d="M138.9160 106.7603
L138.9160 97.8703
" />
<path d="M138.9160 97.8703
L140.5670 96.3463
" />
<path d="M138.9160 97.8703
L129.7720 97.8703
" />
<path d="M129.7720 106.7603
L138.9160 106.7603
" />
<path d="M129.7720 97.8703
L129.7720 106.7603
" />
<path d="M129.7720 97.8703
L128.2170 96.3463
" />
<path d="M128.2480 108.1573
L129.7720 106.7603
" />
<path d="M128.2170 108.2663
L140.5670 108.2663
" />
<path d="M128.2170 91.2663
L128.2170 108.2663
" />
<circle cx="134.3920" cy="93.8063" r="1.5000" /> 
<path d="M113.5910 108.2663
L113.5910 91.2663
" />
<path d="M113.5910 96.3463
L101.2410 96.3463
" />
<path d="M113.5910 91.2663
L101.2410 91.2663
" />
<path d="M111.9400 106.7603
L113.5910 108.2663
" />
<path d="M111.9400 106.7603
L111.9400 97.8703
" />
<path d="M111.9400 97.8703
L113.5910 96.3463
" />
<path d="M111.9400 97.8703
L102.7960 97.8703
" />
<path d="M102.7960 106.7603
L111.9400 106.7603
" />
<path d="M102.7960 97.8703
L102.7960 106.7603
" />
<path d="M102.7960 97.8703
L101.2410 96.3463
" />
<path d="M101.2720 108.1573
L102.7960 106.7603
" />
<path d="M101.2410 108.2663
L113.5910 108.2663
" />
<path d="M101.2410 91.2663
L101.2410 108.2663
" />
<circle cx="107.4160" cy="93.8063" r="1.5000" /> 
<path d="M139.2620 68.4200
L137.7720 68.4200
" />
<path d="M139.2620 68.4200
L139.2620 73.1400
" />
<path d="M136.0520 68.4200
L135.2220 68.4200
" />
<path d="M133.6020 68.4200
L133.0720 68.4200
" />
<path d="M130.7020 68.4200
L129.5220 68.4200
" />
<path d="M129.5120 68.4200
L129.5120 73.1400
" />
<path d="M139.2620 76.9500
L139.2620 80.0100
" />
<path d="M129.5220 76.9500
L129.5220 80.0100
" />
<path d="M139.2620 80.0100
L129.5220 80.0100
" />
<path d="M85.4140 41.8700
L83.9240 41.8700
" />
<path d="M85.4140 41.8700
L85.4140 46.5900
" />
<path d="M82.2040 41.8700
L81.3740 41.8700
" />
<path d="M79.7540 41.8700
L79.2240 41.8700
" />
<path d="M76.8540 41.8700
L75.6740 41.8700
" />
<path d="M75.6640 41.8700
L75.6640 46.5900
" />
<path d="M85.4140 50.4000
L85.4140 53.4600
" />
<path d="M75.6740 50.4000
L75.6740 53.4600
" />
<path d="M85.4140 53.4600
L75.6740 53.4600
" />
<path d="M112.2860 68.4200
L110.7960 68.4200
" />
<path d="M112.2860 68.4200
L112.2860 73.1400
" />
<path d="M109.0760 68.4200
L108.2460 68.4200
" />
<path d="M106.6260 68.4200
L106.0960 68.4200
" />
<path d="M103.7260 68.4200
L102.5460 68.4200
" />
<path d="M102.5360 68.4200
L102.5360 73.1400
" />
<path d="M112.2860 76.9500
L112.2860 80.0100
" />
<path d="M102.5460 76.9500
L102.5460 80.0100
" />
<path d="M112.2860 80.0100
L102.5460 80.0100
" />
<path d="M85.4140 68.4200
L83.9240 68.4200
" />
<path d="M85.4140 68.4200
L85.4140 73.1400
" />
<path d="M82.2040 68.4200
L81.3740 68.4200
" />
<path d="M79.7540 68.4200
L79.2240 68.4200
" />
<path d="M76.8540 68.4200
L75.6740 68.4200
" />
<path d="M75.6640 68.4200
L75.6640 73.1400
" />
<path d="M85.4140 76.9500
L85.4140 80.0100
" />
<path d="M75.6740 76.9500
L75.6740 80.0100
" />
<path d="M85.4140 80.0100
L75.6740 80.0100
" />
<path d="M139.2620 41.8700
L137.7720 41.8700
" />
<path d="M139.2620 41.8700
L139.2620 46.5900
" />
<path d="M136.0520 41.8700
L135.2220 41.8700
" />
<path d="M133.6020 41.8700
L133.0720 41.8700
" />
<path d="M130.7020 41.8700
L129.5220 41.8700
" />
<path d="M129.5120 41.8700
L129.5120 46.5900
" />
<path d="M139.2620 50.4000
L139.2620 53.4600
" />
<path d="M129.5220 50.4000
L129.5220 53.4600
" />
<path d="M139.2620 53.4600
L129.5220 53.4600
" />
<path d="M58.2370 41.8700
L56.7470 41.8700
" />
<path d="M58.2370 41.8700
L58.2370 46.5900
" />
<path d="M55.0270 41.8700
L54.1970 41.8700
" />
<path d="M52.5770 41.8700
L52.0470 41.8700
" />
<path d="M49.6770 41.8700
L48.4970 41.8700
" />
<path d="M48.4870 41.8700
L48.4870 46.5900
" />
<path d="M58.2370 50.4000
L58.2370 53.4600
" />
<path d="M48.4970 50.4000
L48.4970 53.4600
" />
<path d="M58.2370 53.4600
L48.4970 53.4600
" />
<path d="M86.7190 108.2663
L86.7190 91.2663
" />
<path d="M86.7190 96.3463
L74.3690 96.3463
" />
<path d="M86.7190 91.2663
L74.3690 91.2663
" />
<path d="M85.0680 106.7603
L86.7190 108.2663
" />
<path d="M85.0680 106.7603
L85.0680 97.8703
" />
<path d="M85.0680 97.8703
L86.7190 96.3463
" />
<path d="M85.0680 97.8703
L75.9240 97.8703
" />
<path d="M75.9240 106.7603
L85.0680 106.7603
" />
<path d="M75.9240 97.8703
L75.9240 106.7603
" />
<path d="M75.9240 97.8703
L74.3690 96.3463
" />
<path d="M74.4000 108.1573
L75.9240 106.7603
" />
<path d="M74.3690 108.2663
L86.7190 108.2663
" />
<path d="M74.3690 91.2663
L74.3690 108.2663
" />
<circle cx="80.5440" cy="93.8063" r="1.5000" /> 
<path d="M58.2370 68.4200
L56.7470 68.4200
" />
<path d="M58.2370 68.4200
L58.2370 73.1400
" />
<path d="M55.0270 68.4200
L54.1970 68.4200
" />
<path d="M52.5770 68.4200
L52.0470 68.4200
" />
<path d="M49.6770 68.4200
L48.4970 68.4200
" />
<path d="M48.4870 68.4200
L48.4870 73.1400
" />
<path d="M58.2370 76.9500
L58.2370 80.0100
" />
<path d="M48.4970 76.9500
L48.4970 80.0100
" />
<path d="M58.2370 80.0100
L48.4970 80.0100
" />
<g >
</g>
<g >
</g>
<g style="fill:#000000; fill-opacity:0.0; 
stroke:#000000; stroke-width:0.1200; stroke-opacity:1; 
stroke-linecap:round; stroke-linejoin:round;">
</g>
<g style="fill:#000000; fill-opacity:1.0000; 
stroke:#000000; stroke-width:0.0000; stroke-opacity:1; 
stroke-linecap:round; stroke-linejoin:round;">
<circle cx="152.4381" cy="47.7520" r="1.2497" /> 
</g>
<g style="fill:#000000; fill-opacity:1.0000; 
stroke:#000000; stroke-width:0.0212; stroke-opacity:1; 
stroke-linecap:round; stroke-linejoin:round;">
</g>
<g style="fill:#000000; fill-opacity:1.0000; 
stroke:#000000; stroke-width:0.0000; stroke-opacity:1; 
stroke-linecap:round; stroke-linejoin:round;">
<circle cx="159.9362" cy="47.7545" r="1.2497" /> 
</g>
<g style="fill:#000000; fill-opacity:1.0000; 
stroke:#000000; stroke-width:0.0212; stroke-opacity:1; 
stroke-linecap:round; stroke-linejoin:round;">
</g>
<g style="fill:#000000; fill-opacity:1.0000; 
stroke:#000000; stroke-width:0.0000; stroke-opacity:1; 
stroke-linecap:round; stroke-linejoin:round;">
<circle cx="167.4343" cy="47.7520" r="1.2497" /> 
</g>
<g style="fill:#000000; fill-opacity:1.0000; 
stroke:#000000; stroke-width:0.0212; stroke-opacity:1; 
stroke-linecap:round; stroke-linejoin:round;">
</g>
<g style="fill:#000000; fill-opacity:1.0000; 
stroke:#000000; stroke-width:0.0000; stroke-opacity:1; 
stroke-linecap:round; stroke-linejoin:round;">
<circle cx="154.9400" cy="50.2539" r="1.2497" /> 
</g>
<g style="fill:#000000; fill-opacity:1.0000; 
stroke:#000000; stroke-width:0.0212; stroke-opacity:1; 
stroke-linecap:round; stroke-linejoin:round;">
</g>
<g style="fill:#000000; fill-opacity:1.0000; 
stroke:#000000; stroke-width:0.0000; stroke-opacity:1; 
stroke-linecap:round; stroke-linejoin:round;">
<circle cx="164.9324" cy="50.2539" r="1.2497" /> 
</g>
<g style="fill:#000000; fill-opacity:1.0000; 
stroke:#000000; stroke-width:0.0212; stroke-opacity:1; 
stroke-linecap:round; stroke-linejoin:round;">
</g>
<g >
</g>
<g >
</g>
<g >
</g>
<g >
</g>
<g >
</g>
<g >
</g>
<g >
</g>
<g >
</g>
<g >
</g>
<g >
</g>
<g >
</g>
<g >
</g>
<g >
</g>
<g >
</g>
<g >
</g>
<g >
</g>
<g >
</g>
<g >
</g>
<g >
</g>
<g >
</g>
<g >
</g>
<g >
</g>
<g >
</g>
<g >
</g>
<g >
</g>
<g >
</g>
<g >
</g>
<g >
</g>
<g >
</g>
<g >
</g>
<g >
</g>
<g >
</g>
<g style="fill:#000000; fill-opacity:1.0000; 
stroke:#000000; stroke-width:0.0212; stroke-opacity:1; 
stroke-linecap:round; stroke-linejoin:round;">
</g>
<g style="fill:#000000; fill-opacity:1.0000; 
stroke:#000000; stroke-width:0.0000; stroke-opacity:1; 
stroke-linecap:round; stroke-linejoin:round;">
<circle cx="173.9900" cy="47.7520" r="1.2497" /> 
</g>
<g style="fill:#000000; fill-opacity:1.0000; 
stroke:#000000; stroke-width:0.0212; stroke-opacity:1; 
stroke-linecap:round; stroke-linejoin:round;">
</g>
<g style="fill:#000000; fill-opacity:1.0000; 
stroke:#000000; stroke-width:0.0000; stroke-opacity:1; 
stroke-linecap:round; stroke-linejoin:round;">
<circle cx="181.4881" cy="47.7545" r="1.2497" /> 
</g>
<g style="fill:#000000; fill-opacity:1.0000; 
stroke:#000000; stroke-width:0.0212; stroke-opacity:1; 
stroke-linecap:round; stroke-linejoin:round;">
</g>
<g style="fill:#000000; fill-opacity:1.0000; 
stroke:#000000; stroke-width:0.0000; stroke-opacity:1; 
stroke-linecap:round; stroke-linejoin:round;">
<circle cx="188.9862" cy="47.7520" r="1.2497" /> 
</g>
<g style="fill:#000000; fill-opacity:1.0000; 
stroke:#000000; stroke-width:0.0212; stroke-opacity:1; 
stroke-linecap:round; stroke-linejoin:round;">
</g>
<g style="fill:#000000; fill-opacity:1.0000; 
stroke:#000000; stroke-width:0.0000; stroke-opacity:1; 
stroke-linecap:round; stroke-linejoin:round;">
<circle cx="176.4919" cy="50.2539" r="1.2497" /> 
</g>
<g style="fill:#000000; fill-opacity:1.0000; 
stroke:#000000; stroke-width:0.0212; stroke-opacity:1; 
stroke-linecap:round; stroke-linejoin:round;">
</g>
<g style="fill:#000000; fill-opacity:1.0000; 
stroke:#000000; stroke-width:0.0000; stroke-opacity:1; 
stroke-linecap:round; stroke-linejoin:round;">
<circle cx="186.4843" cy="50.2539" r="1.2497" /> 
</g>
<g style="fill:#000000; fill-opacity:1.0000; 
stroke:#000000; stroke-width:0.0212; stroke-opacity:1; 
stroke-linecap:round; stroke-linejoin:round;">
</g>
<g >
</g>
<g >
</g>
<g >
</g>
<g >
</g>
<g >
</g>
<g >
</g>
<g >
</g>
<g >
</g>
<g >
</g>
<g >
</g>
<g >
</g>
<g >
</g>
<g >
</g>
<g >
</g>
<g >
</g>
<g >
</g>
<g >
</g>
</g>
<g style="fill:#000000; fill-opacity:1.0000; 
stroke:#000000; stroke-width:0.0212; stroke-opacity:1; 
stroke-linecap:round; stroke-linejoin:round;">
</g>
<g style="fill:#000000; fill-opacity:1.0000; 
stroke:#000000; stroke-width:0.1000; stroke-opacity:1; 
stroke-linecap:round; stroke-linejoin:round;">
</g>
<g style="fill:#000000; fill-opacity:0.0; 
stroke:#000000; stroke-width:0.1000; stroke-opacity:1; 
stroke-linecap:round; stroke-linejoin:round;">
<path d="M43.1800 35.5600
L195.5800 35.5600
" />
<path d="M195.5800 35.5600
L195.5800 114.3000
" />
<path d="M43.1800 114.3000
L43.1800 35.5600
" />
<path d="M195.5800 114.3000
L43.1800 114.3000
" />
<g >
</g>
<g >
</g>
<g >
</g>
<g >
</g>
<g >
</g>
<g >
</g>
<g >
</g>
<g >
</g>
<g >
</g>
<g >
</g>
<g >
</g>
<g >
</g>
<g >
</g>
<g >
</g>
<g >
</g>
<g >
</g>
<g >
</g>
<g >
</g>
<g >
</g>
<g >
</g>
<g >
</g>
<g >
</g>
<g >
</g>
<g >
</g>
<g >
</g>
<g >
</g>
<g >
</g>
<g >
</g>
<g >
</g>
<g >
</g>
<g >
</g>
<g >
</g>
<g >
</g>
<g >
</g>
<g >
</g>
<g >
</g>
<g >
</g>
<g >
</g>
<g >
</g>
<g >
</g>
<g >
</g>
<g >
</g>
<g >
</g>
<g >
</g>
<g >
</g>
<g >
</g>
<g >
</g>
<g >
</g>
<g >
</g>
<g >
</g>
<g >
</g>
</g> 
</svg>
